<svg width="512" height="512" viewBox="0 0 512 512" fill="none" xmlns="http://www.w3.org/2000/svg">
<rect width="334.684" height="316.952" transform="translate(84.2251 106.39)" fill="#0077FF"/>
<g clip-path="url(#clip0_5_1502)">
<path fill-rule="evenodd" clip-rule="evenodd" d="M37.4837 37.4837C0 74.9786 0 135.323 0 256C0 376.677 0 437.021 37.4837 474.505C74.9673 511.989 135.323 512 256 512C376.677 512 437.021 512 474.505 474.505C511.989 437.01 512 376.677 512 256C512 135.323 512 74.9786 474.505 37.4837C437.01 -0.0112208 376.677 4.0148e-09 256 4.0148e-09C135.323 4.0148e-09 74.9786 0 37.4837 37.4837ZM113.248 192.513C114.862 190.576 116.842 188.975 119.075 187.803C121.308 186.631 123.75 185.911 126.262 185.682C128.774 185.454 131.306 185.723 133.713 186.473C136.121 187.224 138.357 188.441 140.294 190.056L147.365 195.948C162.852 208.854 176.039 219.841 185.163 229.941C194.859 240.67 202.412 253.015 202.412 268.805C202.412 284.595 194.859 296.929 185.163 307.658C176.039 317.758 162.852 328.745 147.365 341.651L140.294 347.554C138.363 349.211 136.121 350.466 133.7 351.248C131.278 352.03 128.726 352.324 126.19 352.111C123.655 351.898 121.187 351.183 118.93 350.008C116.673 348.833 114.672 347.221 113.043 345.266C111.415 343.311 110.191 341.052 109.443 338.62C108.695 336.188 108.438 333.631 108.687 331.099C108.936 328.567 109.685 326.109 110.892 323.869C112.099 321.629 113.739 319.651 115.717 318.05L121.721 313.045C138.555 299.005 149.598 289.758 156.679 281.924C163.413 274.484 164.03 271.005 164.03 268.805C164.03 266.605 163.391 263.115 156.679 255.675C149.598 247.819 138.577 238.605 121.721 224.554L115.717 219.549C113.779 217.936 112.178 215.958 111.005 213.726C109.832 211.494 109.11 209.053 108.881 206.543C108.651 204.032 108.919 201.501 109.668 199.094C110.418 196.686 111.634 194.45 113.248 192.513ZM403.196 332.797C403.196 337.887 401.175 342.77 397.576 346.371C393.978 349.971 389.096 351.996 384.006 351.999H256C253.44 352.061 250.894 351.61 248.51 350.673C246.127 349.736 243.956 348.332 242.123 346.543C240.291 344.755 238.834 342.617 237.84 340.258C236.846 337.898 236.334 335.363 236.334 332.802C236.334 330.242 236.846 327.707 237.84 325.347C238.834 322.987 240.291 320.85 242.123 319.061C243.956 317.273 246.127 315.869 248.51 314.932C250.894 313.995 253.44 313.544 256 313.606H384.006C389.094 313.609 393.974 315.632 397.572 319.23C401.171 322.828 403.193 327.708 403.196 332.797Z" fill="white"/>
</g>
<defs>
<clipPath id="clip0_5_1502">
<rect width="512" height="512" fill="white"/>
</clipPath>
</defs>
</svg>
